<svg width="22" height="22" viewBox="0 0 22 22" fill="none" xmlns="http://www.w3.org/2000/svg">
<path d="M19.3958 21.8333H2.60416C1.26083 21.8333 0.166664 20.7392 0.166664 19.3958V2.60417C0.166664 1.26084 1.26083 0.166672 2.60416 0.166672H19.3958C20.7392 0.166672 21.8333 1.26084 21.8333 2.60417V19.3958C21.8333 20.7392 20.7392 21.8333 19.3958 21.8333ZM2.60416 1.79167C2.15566 1.79167 1.79166 2.15676 1.79166 2.60417V19.3958C1.79166 19.8433 2.15566 20.2083 2.60416 20.2083H19.3958C19.8443 20.2083 20.2083 19.8433 20.2083 19.3958V2.60417C20.2083 2.15676 19.8443 1.79167 19.3958 1.79167H2.60416Z" fill="black"/>
</svg>
